<svg width="60" height="60" viewBox="0 0 60 60" fill="none" xmlns="http://www.w3.org/2000/svg">
<path opacity="0.5" d="M55.3726 11.4425L17.244 1.22598C14.717 0.548892 12.1196 2.04849 11.4425 4.57544L1.22599 42.7041C0.548897 45.231 2.0485 47.8284 4.57544 48.5055L42.7041 58.7221C45.231 59.3991 47.8284 57.8995 48.5055 55.3726L58.7221 17.2439C59.3992 14.717 57.8996 12.1196 55.3726 11.4425Z" fill="#91CAFF"/>
<path d="M49.7109 5.50024H10.2372C7.62112 5.50024 5.50037 7.621 5.50037 10.2371V49.7108C5.50037 52.3269 7.62112 54.4476 10.2372 54.4476H49.7109C52.327 54.4476 54.4477 52.3269 54.4477 49.7108V10.2371C54.4477 7.621 52.327 5.50024 49.7109 5.50024Z" fill="#0047AB"/>
<mask id="mask0_802_26909" style="mask-type:luminance" maskUnits="userSpaceOnUse" x="10" y="10" width="40" height="40">
<path d="M49.7109 10.2373H10.2372V49.711H49.7109V10.2373Z" fill="white"/>
</mask>
<g mask="url(#mask0_802_26909)">
<path fill-rule="evenodd" clip-rule="evenodd" d="M20.5218 21.0337C17.0839 22.7528 17.0839 21.1567 14.9966 21.1567C13.8915 21.1567 12.7865 23.2439 14.6282 24.2262C15.1193 24.4717 16.1016 24.8402 16.7155 24.8402C14.9966 28.1552 13.2776 31.5932 11.5586 34.9084C11.1903 34.9084 10.6992 34.7856 10.4536 35.0311C9.71689 35.6449 11.0675 37.4868 11.4359 37.8551L12.7865 38.8374C15.856 40.679 21.5041 40.802 24.2053 38.3463C24.9421 37.6095 25.9242 36.6272 25.9242 35.3994C25.9242 34.9084 24.9421 34.9084 24.6963 34.9084C24.5736 34.6628 24.2053 33.9261 24.0825 33.6805C22.6092 30.9793 20.7673 27.9097 19.6623 25.2085C19.4168 24.7172 19.5395 24.963 20.5218 24.7172C22.7319 24.3489 25.1876 22.8756 27.2749 22.8756V42.8891C25.8014 42.8891 24.6963 43.9942 24.6963 45.4676H21.6269C20.6446 45.4676 19.4168 46.5726 19.4168 48.046H29.9761H40.5353C40.5353 46.5726 39.3075 45.4676 38.3254 45.4676H35.2557C35.2557 43.9942 34.1507 42.8891 32.6773 42.8891V22.8756C34.7647 22.8756 37.2203 24.3489 39.4303 24.7172C40.4126 24.963 40.5353 24.7172 40.2898 25.2085C39.062 27.9097 37.3431 30.9793 35.8697 33.6805C35.7468 33.9261 35.3785 34.6628 35.2557 34.9084C35.0102 34.9084 33.9051 34.9084 33.9051 35.3994C33.9051 36.6272 35.0102 37.6095 35.7468 38.3463C38.3254 40.802 44.0961 40.679 47.1657 38.8374L48.5163 37.8551C48.8846 37.4868 50.2352 35.6449 49.4986 35.0311C49.2529 34.7856 48.7619 34.9084 48.3936 34.9084C46.6745 31.5932 44.9556 28.1552 43.2367 24.8402C43.8505 24.8402 44.8328 24.4717 45.2011 24.2262C47.1657 23.2439 45.9379 21.1567 44.8328 21.1567C42.8682 21.1567 42.8682 22.7528 39.4303 21.0337C34.519 18.4554 25.4331 18.4554 20.5218 21.0337ZM41.8859 25.454L39.4303 30.2426L36.9746 35.0311H41.8859H46.6745L44.3416 30.2426L41.8859 25.454ZM18.0661 25.454L20.5218 30.2426L22.9774 35.0311H18.0661H13.1548L15.6105 30.2426L18.0661 25.454Z" fill="white"/>
<path fill-rule="evenodd" clip-rule="evenodd" d="M29.9761 11.9479L31.9405 15.263L33.7824 18.5782H29.9761H26.1699L28.0115 15.263L29.9761 11.9479Z" fill="white"/>
</g>
</svg>
